HIERARCHY
ROOT Hips
{
	OFFSET	0.00	0.00	0.00
	CHANNELS 6 Xposition Yposition Zposition Zrotation Xrotation Yrotation
	JOINT LeftUpLeg
	{
		OFFSET	 0.126116	-0.065224	 0.014019
		CHANNELS 3 Zrotation Xrotation Yrotation
		JOINT LeftLeg
		{
			OFFSET	 0.000000	 0.569914	 0.000000
			CHANNELS 3 Zrotation Xrotation Yrotation
			JOINT LeftFoot
			{
				OFFSET	 0.000000	 0.544423	 0.000000
				CHANNELS 3 Zrotation Xrotation Yrotation
				JOINT LeftToeBase
				{
					OFFSET	 0.000000	 0.207117	 0.000000
					CHANNELS 3 Zrotation Xrotation Yrotation
					End Site
					{
						OFFSET	 0.000000	 0.207117	 0.000000
					}
				}
			}
		}
	}
	JOINT RightUpLeg
	{
		OFFSET	-0.124023	-0.065224	 0.008373
		CHANNELS 3 Zrotation Xrotation Yrotation
		JOINT RightLeg
		{
			OFFSET	 0.000000	 0.570047	 0.000000
			CHANNELS 3 Zrotation Xrotation Yrotation
			JOINT RightFoot
			{
				OFFSET	 0.000000	 0.544354	 0.000000
				CHANNELS 3 Zrotation Xrotation Yrotation
				JOINT RightToeBase
				{
					OFFSET	 0.000000	 0.207540	 0.000000
					CHANNELS 3 Zrotation Xrotation Yrotation
					End Site
					{
						OFFSET	 0.000000	 0.207540	 0.000000
					}
				}
			}
		}
	}
	JOINT Spine
	{
		OFFSET	 0.000184	 0.117403	 0.007763
		CHANNELS 3 Zrotation Xrotation Yrotation
		JOINT Spine1
		{
			OFFSET	 0.000000	 0.137269	 0.000000
			CHANNELS 3 Zrotation Xrotation Yrotation
			JOINT Spine2
			{
				OFFSET	 0.000000	 0.156879	 0.000000
				CHANNELS 3 Zrotation Xrotation Yrotation
				JOINT LeftShoulder
				{
					OFFSET	 0.080501	 0.160143	 0.002496
					CHANNELS 3 Zrotation Xrotation Yrotation
					JOINT LeftArm
					{
						OFFSET	 0.000000	 0.164363	 0.000000
						CHANNELS 3 Zrotation Xrotation Yrotation
						JOINT LeftForeArm
						{
							OFFSET	 0.000000	 0.364576	 0.000000
							CHANNELS 3 Zrotation Xrotation Yrotation
							JOINT LeftHand
							{
								OFFSET	 0.000000	 0.360812	 0.000000
								CHANNELS 3 Zrotation Xrotation Yrotation
								JOINT LeftHandIndex1
								{
									OFFSET	 0.000000	 0.086006	 0.000000
									CHANNELS 3 Zrotation Xrotation Yrotation
									JOINT LeftHandIndex2
									{
										OFFSET	 0.000000	 0.047237	 0.000000
										CHANNELS 3 Zrotation Xrotation Yrotation
										JOINT LeftHandIndex3
										{
											OFFSET	-0.004284	 0.038165	 0.000551
											CHANNELS 3 Zrotation Xrotation Yrotation
											End Site
											{
												OFFSET	-0.004284	 0.038165	 0.000551
											}
										}
									}
								}
							}
						}
					}
				}
				JOINT Neck
				{
					OFFSET	 0.000000	 0.176489	 0.000000
					CHANNELS 3 Zrotation Xrotation Yrotation
					JOINT Head
					{
						OFFSET	 0.000000	 0.077941	 0.001747
						CHANNELS 3 Zrotation Xrotation Yrotation
						End Site
						{
							OFFSET	 0.000000	 0.077941	 0.001747
						}
					}
				}
				JOINT RightShoulder
				{
					OFFSET	-0.080363	 0.159706	-0.000306
					CHANNELS 3 Zrotation Xrotation Yrotation
					JOINT RightArm
					{
						OFFSET	 0.000000	 0.164196	 0.000000
						CHANNELS 3 Zrotation Xrotation Yrotation
						JOINT RightForeArm
						{
							OFFSET	 0.000000	 0.365611	 0.000000
							CHANNELS 3 Zrotation Xrotation Yrotation
							JOINT RightHand
							{
								OFFSET	 0.000000	 0.360648	 0.000000
								CHANNELS 3 Zrotation Xrotation Yrotation
								JOINT RightHandIndex1
								{
									OFFSET	 0.000000	 0.069977	 0.000000
									CHANNELS 3 Zrotation Xrotation Yrotation
									JOINT RightHandIndex2
									{
										OFFSET	 0.000000	 0.052305	 0.000000
										CHANNELS 3 Zrotation Xrotation Yrotation
										JOINT RightHandIndex3
										{
											OFFSET	 0.009002	 0.042196	 0.000782
											CHANNELS 3 Zrotation Xrotation Yrotation
											End Site
											{
												OFFSET	 0.009002	 0.042196	 0.000782
											}
										}
									}
								}
							}
						}
					}
				}
			}
		}
	}
}
MOTION
Frames:    7
Frame Time: 0.03333334
 0.591592	 1.120720	-0.186467	 18.083260	-15.954880	-86.970660	 165.779800	 37.803560	-15.073700	 23.606740	-77.034460	 31.432780	 48.200610	 26.999380	-51.548500	 0.032375	 42.916110	-3.895851	 143.158100	 64.461090	 24.235880	-13.854910	-70.206040	-14.475300	-49.333810	 62.341010	 73.156480	-1.645689	 33.307830	 2.847742	 3.855283	 12.239810	-2.843513	-13.980990	 0.303742	 2.190241	 13.560930	 17.932080	 14.970150	-102.739400	 3.917844	 91.042310	-21.967140	 66.637210	 32.461810	 34.553780	-1.721269	 1.163587	-28.405820	 15.773760	 20.214750	-2.579780	 1.555741	-8.353517	-6.942565	 7.784484	 1.953512	 4.963066	-4.014628	-0.346955	 12.105530	 3.706946	 2.315798	-0.010653	 6.582257	-40.613780	 89.024430	 6.225748	-91.886680	-59.930810	 42.873310	 72.594950	-76.550930	-5.142655	 6.105991	 19.124710	 39.297100	-11.692630	-3.056946	 16.557150	-2.193123	 14.260610	 21.734130	-6.413641	-8.239867	-2.131385	 0.447455
 0.616376	 1.144541	-0.188501	 15.817470	-12.720960	-80.051190	 170.067400	 24.253940	-17.789420	 13.412810	-68.323560	 21.411600	 46.328200	 30.580620	-53.054310	 0.225713	 41.195990	-3.897763	 142.591400	 56.387460	 29.052940	-11.278140	-66.218030	-12.020650	-48.688900	 60.135100	 71.280300	-1.647153	 33.330910	 2.849085	 3.758172	 10.714520	-2.509849	-13.123880	-0.258369	 1.887010	 13.975970	 15.972090	 13.806420	-101.643400	 2.647741	 90.994570	-24.312270	 67.101390	 34.382980	 32.330390	-1.631809	 1.197656	-27.239600	 17.657680	 21.344680	-2.244661	 3.322937	-8.278652	-6.989213	 8.050022	 2.006360	 4.963066	-4.014628	-0.346955	 13.648490	 4.577690	 1.536007	-1.515338	 6.384878	-41.112500	 89.642300	 4.374141	-92.275650	-63.183570	 37.451870	 77.995800	-73.312710	-5.065446	 5.835260	 19.304360	 35.934340	-14.559660	-2.914450	 16.774390	-2.380407	 14.267030	 21.940640	-6.471718	-8.239867	-2.131385	 0.447455
 0.647251	 1.159783	-0.178690	 14.902900	-10.106830	-72.022610	 170.227600	 16.655690	-14.026290	 8.318302	-57.490360	 15.021670	 46.895480	 40.287550	-62.888150	 1.230516	 40.329780	-5.518663	 138.066500	 49.158640	 37.796350	-9.723579	-62.965850	-10.389750	-44.828210	 58.829680	 67.263270	-1.648813	 33.356160	 2.850472	 3.184799	 9.535374	-1.663971	-9.404858	-0.061580	 2.101298	 10.573570	 12.690680	 11.881910	-101.570100	 0.942971	 91.318420	-21.852290	 64.981670	 31.114320	 33.896960	-1.706431	 1.307156	-24.053640	 16.331510	 20.717020	-2.409474	 8.597988	-7.983062	-7.011304	 8.119072	 2.020262	 4.963066	-4.014628	-0.346955	 15.086890	 3.083366	 0.355519	-2.269533	 4.183102	-42.472390	 89.019600	 2.041909	-91.939510	-62.295590	 31.540160	 83.439020	-68.663830	-4.926379	 5.807439	 18.655680	 26.650870	-14.591390	-2.913308	 16.706460	-2.498044	 14.299260	 22.254780	-6.567479	-8.239867	-2.131385	 0.447455
 0.675819	 1.163193	-0.168280	 13.609870	-8.060198	-64.175550	 170.341300	 13.673900	-9.684045	 6.516460	-50.909150	 11.572110	 51.775040	 47.750350	-75.645180	 2.172371	 39.459930	-7.069009	 134.710400	 42.380290	 45.099080	-9.228640	-61.746980	-9.716415	-42.891380	 58.486190	 65.238330	-1.650442	 33.380910	 2.851833	 2.377461	 8.589096	-1.294930	-4.767316	 2.619473	 1.948007	 6.901694	 8.473071	 9.871771	-101.488900	-0.728518	 91.638160	-18.243020	 63.266400	 26.796460	 36.442670	-1.821614	 1.448068	-21.275890	 15.967010	 18.812000	-2.601174	 13.769220	-7.672827	-7.032991	 8.186789	 2.033925	 4.963066	-4.014628	-0.346955	 16.465840	 1.589903	-0.764179	-3.068668	 2.115492	-43.812490	 88.422600	-0.248721	-91.634670	-59.668160	 27.074610	 88.972380	-64.744050	-4.784009	 5.700590	 15.265990	 19.699740	-14.499860	-2.912328	 16.639820	-2.613376	 14.331500	 22.562830	-6.661796	-8.239867	-2.131385	 0.447455
 0.713682	 1.169090	-0.161709	 12.517190	-6.338590	-57.727290	 169.948900	 12.152790	-3.895277	 5.638939	-46.822770	 10.216030	 58.502460	 49.176450	-83.983310	 2.170437	 35.342600	-7.486274	 133.664100	 37.703400	 49.525450	-8.310235	-59.192950	-8.604073	-39.872400	 56.802770	 61.477460	-1.678221	 33.274700	 2.917474	 1.780440	 7.863298	-0.462620	-1.792835	 3.848799	 1.966028	 3.583407	 6.037125	 7.639820	-101.519900	-1.835832	 92.991350	-12.057680	 61.707260	 19.038510	 38.624010	-1.915127	 1.568380	-17.517790	 12.137870	 20.177090	-3.022167	 15.095600	-7.465545	-7.056191	 8.262025	 2.048244	 4.963066	-4.014628	-0.346955	 16.846590	-1.215593	-2.038750	-2.537697	-0.216460	-44.728270	 88.011060	-2.416380	-91.308110	-54.400000	 21.276660	 90.673760	-58.495500	-4.511069	 5.802773	 13.466630	 9.871936	-12.336960	-2.911241	 16.573790	-2.727682	 14.347870	 22.798520	-6.731316	-8.239867	-2.131385	 0.447455
 0.756460	 1.170614	-0.157424	 11.443240	-4.920503	-51.986170	 169.010800	 13.721640	 1.342073	 5.696989	-47.114180	 10.218630	 65.791860	 48.627020	-89.523770	 1.798370	 29.891370	-7.457734	 132.816000	 34.452570	 53.191020	-7.547567	-56.729400	-7.610016	-36.769130	 54.496020	 57.280340	-1.716453	 33.113850	 3.009400	 1.262974	 7.200654	 0.366435	 1.056002	 5.516952	 1.814112	 0.253675	 4.044041	 5.310720	-101.579100	-2.681281	 94.765460	-4.753712	 60.173300	 9.880290	 41.069060	-2.012685	 1.693780	-13.220710	 7.712737	 22.183070	-3.523638	 14.740820	-7.316261	-7.079628	 8.339104	 2.062600	 4.963066	-4.014628	-0.346955	 16.731880	-4.530067	-3.374345	-1.419737	-2.596259	-45.450580	 87.693450	-4.492469	-90.980870	-48.208080	 15.293920	 91.397410	-51.242400	-4.127269	 5.965090	 11.982750	-0.928804	-9.241854	-2.910199	 16.509250	-2.839394	 14.357110	 22.998600	-6.788821	-8.239867	-2.131385	 0.447455
 0.797067	 1.174330	-0.153558	 10.402900	-3.730293	-46.295380	 167.703600	 15.490410	 6.188920	 5.812524	-47.685490	 10.264930	 72.904590	 47.686320	-94.285870	 1.454077	 24.551740	-7.468778	 133.104500	 31.347790	 56.269080	-7.102796	-55.123610	-6.886963	-36.286080	 53.149960	 55.667490	-1.753582	 32.956050	 3.099268	 0.702334	 6.626299	 0.948575	 4.122864	 6.575767	 1.214954	-2.937875	 2.510258	 2.928078	-101.611800	-3.511638	 96.505630	 1.975157	 58.830040	 1.571168	 42.682950	-2.071592	 1.791579	-8.247693	 3.363425	 23.308500	-4.013724	 14.391660	-7.173210	-7.102636	 8.414691	 2.076714	 4.963066	-4.014628	-0.346955	 16.543140	-7.775483	-4.698098	-0.311136	-4.881292	-46.171050	 87.392540	-6.529884	-90.670110	-43.228250	 10.260660	 92.646740	-42.814720	-3.598507	 6.132023	 8.640863	-12.288700	-6.017724	-2.909306	 16.445960	-2.948916	 14.366400	 23.194800	-6.845333	-8.239867	-2.131385	 0.447455
